# xmcd
#
# Track frame offsets: 
#        183
#        18365
#        43132
#        60194
#        77001
#        90818
#        106070
#        132682
#        151954
#        178051
#
# Disc length: 2796 seconds
#
# Revision: 4
# Processed by: cddbd v1.5.2PL0 Copyright (c) Steve Scherf et al.
# Submitted via: ExactAudioCopy v0.95b4
#
DISCID=6f0aea0a
DTITLE=Stevie Wonder - The Secret Life Of Plants Vol 2
DYEAR=1979
DGENRE=Soul
TTITLE0=Send One Your Love
TTITLE1=Outside My Window
TTITLE2=Black Orchid
TTITLE3=Ecclesiastes
TTITLE4=Kesse Ye Lolo De Ye
TTITLE5=Come Back As A Flower
TTITLE6=A Seed's A Star - Tree Medley
TTITLE7=The Secret Life Of Plants
TTITLE8=Tree
TTITLE9=Finale
EXTD=
EXTT0=
EXTT1=
EXTT2=
EXTT3=
EXTT4=
EXTT5=
EXTT6=
EXTT7=
EXTT8=
EXTT9=
PLAYORDER=
